<svg id="svg" xmlns="http://www.w3.org/2000/svg" xmlns:xlink="http://www.w3.org/1999/xlink" width="400" height="400" 
viewBox="0, 0, 400,400"><g id="svgg">
<path id="path0" d="M231.927 25.500 C 225.821 30.973,225.738 31.333,214.884 98.845 C 200.692 187.116,200.712 187.092,198.818 117.912 C 197.299 62.471,196.251 57.572,184.886 52.823 C 176.025 49.121,168.918 51.009,163.277 58.564 C 159.136 64.112,159.083 64.786,155.350 159.380 L 154.388 183.761 165.694 185.037 C 248.900 194.432,260.000 196.646,260.000 203.845 C 260.000 210.714,255.719 212.000,232.845 212.000 C 195.709 212.000,196.259 215.570,238.986 251.927 C 271.138 279.284,275.383 284.580,268.941 289.290 C 264.481 292.552,262.450 291.475,237.597 272.677 C 226.925 264.604,217.700 258.000,217.097 258.000 C 213.313 258.000,218.750 265.234,240.087 288.588 C 259.287 309.604,264.055 315.971,263.587 319.976 C 262.225 331.638,255.281 327.751,229.285 300.777 C 199.727 270.105,196.245 270.916,219.084 303.155 C 235.072 325.722,238.721 334.082,233.886 337.070 C 228.555 340.365,221.877 334.547,204.000 311.032 C 178.741 277.807,175.037 276.806,189.046 306.990 C 196.082 322.149,197.583 327.093,195.801 329.240 C 191.456 334.476,188.107 331.945,177.622 315.500 C 147.485 268.234,84.333 181.262,75.820 175.299 C 61.473 165.250,40.908 179.829,45.667 196.674 C 48.594 207.034,127.290 336.734,137.493 348.013 C 160.105 373.011,180.494 380.954,218.638 379.624 C 273.340 377.718,287.582 360.874,313.869 267.000 C 321.570 239.500,334.256 199.509,342.060 178.132 C 356.941 137.368,357.511 133.427,349.599 126.055 C 337.648 114.922,329.525 121.672,311.135 158.014 C 287.391 204.939,286.758 201.888,305.270 129.741 C 321.487 66.541,321.748 63.509,311.700 55.054 C 292.992 39.313,285.298 49.068,266.977 111.762 C 258.818 139.681,251.660 163.006,251.071 163.596 C 247.586 167.081,248.433 156.392,255.824 103.638 C 265.729 32.934,265.715 33.407,258.154 25.846 C 250.308 18.000,240.439 17.870,231.927 25.500 " stroke="none" fill="#E35268" fill-rule="evenodd"></path></g></svg>